<svg width="19" height="18" viewBox="0 0 19 18" fill="none" xmlns="http://www.w3.org/2000/svg">
<path d="M17.0004 3.8325V12.3525C17.0004 13.44 16.2204 13.8975 15.2679 13.3725L13.8204 12.5625C13.7004 12.495 13.6254 12.3675 13.6254 12.2325V6.7425C13.6254 4.8375 12.0729 3.285 10.1679 3.285H7.11537C6.83787 3.285 6.64287 2.9925 6.77037 2.7525C7.16037 2.01 7.94037 1.5 8.83287 1.5H14.6679C15.9504 1.5 17.0004 2.55 17.0004 3.8325Z" fill="white"/>
<path d="M10.1675 4.41016H4.3325C3.05 4.41016 2 5.46016 2 6.74266V15.2627C2 16.3502 2.78 16.8077 3.7325 16.2827L6.68 14.6402C6.995 14.4677 7.505 14.4677 7.82 14.6402L10.7675 16.2827C11.72 16.8077 12.5 16.3502 12.5 15.2627V6.74266C12.5 5.46016 11.45 4.41016 10.1675 4.41016ZM8.75 9.56266H7.8125V10.5002C7.8125 10.8077 7.5575 11.0627 7.25 11.0627C6.9425 11.0627 6.6875 10.8077 6.6875 10.5002V9.56266H5.75C5.4425 9.56266 5.1875 9.30766 5.1875 9.00016C5.1875 8.69266 5.4425 8.43766 5.75 8.43766H6.6875V7.50016C6.6875 7.19266 6.9425 6.93766 7.25 6.93766C7.5575 6.93766 7.8125 7.19266 7.8125 7.50016V8.43766H8.75C9.0575 8.43766 9.3125 8.69266 9.3125 9.00016C9.3125 9.30766 9.0575 9.56266 8.75 9.56266Z" fill="white"/>
</svg>
